<svg width="3044" height="326" viewBox="0 0 3044 326" fill="none" xmlns="http://www.w3.org/2000/svg">
<path opacity="0.5" d="M1275.43 60.5C1396.23 60.5002 1412.16 95 1522 95C1636 95 1663.5 0 1763.5 0C1863.5 0 1943.5 50.5 2076 50.5C2208.5 50.5 2215.5 87 2290 87C2364.5 87 2452.5 23 2570.5 23C2688.5 23 2676.63 60.4998 2797.43 60.5C2918.23 60.5002 2934.17 95 3044 95V211.607C2930 211.607 2915 230 2819 264.607C2724.93 298.521 2643 326 2510.5 326C2378 326 2332 264.607 2257.5 264.607C2183 264.607 2106 298.5 1988 298.5C1870 298.5 1884.3 255 1763.5 255C1642.7 255 1636.32 211.607 1522 211.607C1408 211.607 1393 230 1297 264.607C1202.93 298.521 1121 326 988.5 326C856 326 810 264.607 735.5 264.607C661 264.607 584 298.5 466 298.5C348 298.5 362.3 255 241.5 255C120.7 255 114.318 211.607 0 211.607V95C114 95 141.5 0 241.5 0C341.5 0 421.5 50.5 554 50.5C686.5 50.5 693.5 87 768 87C842.5 87 930.5 23 1048.5 23C1166.5 23 1154.63 60.4998 1275.43 60.5Z" fill="#FC5E53"/>
</svg>
