<svg width="3050" height="244" viewBox="0 0 3050 244" fill="none" xmlns="http://www.w3.org/2000/svg">
<path opacity="0.25" d="M244.981 36C123.943 36.0002 75.678 76.1355 0.000914999 76.1355L0 192.951C114.225 192.951 152.582 238 260.968 238C374.669 238 408.804 211.985 541.565 211.985C674.326 211.985 742.191 238 816.837 238C891.484 238 922.815 192.342 1041.05 192.342C1159.28 192.342 1202.17 243.934 1323.21 243.934C1444.25 243.934 1417.13 192.951 1525 192.951C1639.22 192.951 1677.58 238 1785.97 238C1899.67 238 1933.8 211.985 2066.56 211.985C2199.33 211.985 2267.19 238 2341.84 238C2416.48 238 2447.81 192.342 2566.05 192.342C2684.28 192.342 2727.17 243.934 2848.21 243.934C2969.25 243.934 2942.13 192.951 3050 192.951V76.1355C2935.78 76.1355 2908.22 0 2808.02 0C2707.83 0 2641.2 76.1355 2508.43 76.1355C2375.67 76.1355 2336.6 23.041 2261.95 23.041C2187.3 23.041 2127.18 95.778 2008.95 95.778C1890.72 95.778 1891.02 35.9998 1769.98 36C1648.94 36.0002 1600.68 76.1355 1525 76.1355C1410.78 76.1355 1383.22 0 1283.02 0C1182.83 0 1116.2 76.1355 983.434 76.1355C850.673 76.1355 811.596 23.041 736.949 23.041C662.302 23.041 602.184 95.778 483.951 95.778C365.719 95.778 366.019 35.9998 244.981 36Z" fill="#FC5E53"/>
</svg>
